<?xml version="1.0" encoding="iso-8859-1"?>
<!-- Uploaded to: SVG Repo, www.svgrepo.com, Generator: SVG Repo Mixer Tools -->
<svg version="1.1" id="Layer_1" xmlns="http://www.w3.org/2000/svg" xmlns:xlink="http://www.w3.org/1999/xlink" 
	 viewBox="0 0 512.005 512.005" xml:space="preserve">
<g>
	<rect y="496.141" style="fill:#1D1D1B;" width="512.005" height="15.728"/>
	<rect x="143.997" y="392.136" style="fill:#1D1D1B;" width="224.001" height="15.728"/>
	<path style="fill:#1D1D1B;" d="M255.999,192.136c-13.158,0-23.864,10.706-23.864,23.864v32.001
		c0,13.159,10.706,23.865,23.864,23.865c13.158,0,23.864-10.706,23.864-23.865V216C279.864,202.842,269.159,192.136,255.999,192.136
		z M264.136,248.001c0,4.486-3.65,8.137-8.136,8.137s-8.136-3.65-8.136-8.137V216c0-4.486,3.65-8.136,8.136-8.136
		s8.136,3.649,8.136,8.136V248.001z"/>
	<path style="fill:#1D1D1B;" d="M112.136,488h15.728V375.865h256.272V488h15.728V375.865H416v-15.728h-96.136v-80H192.136v80H96
		v15.728h16.136V488z M207.864,295.865h96.271v64.272h-16.272v-32.135h-15.728v32.135h-32.271v-32.135h-15.728v32.135h-16.271
		V295.865z"/>
	<path style="fill:#1D1D1B;" d="M255.999,179.122l19.26-19.257h60.605V0.136H176.136v159.729h60.607L255.999,179.122z
		 M191.864,15.864h128.272v128.273h-51.391l-12.744,12.742l-12.743-12.742h-51.393L191.864,15.864L191.864,15.864z"/>
	<rect x="248.139" y="40.003" style="fill:#1D1D1B;" width="15.728" height="16.001"/>
	<rect x="248.139" y="64.004" style="fill:#1D1D1B;" width="15.728" height="56.003"/>
</g>
</svg>