<?xml version="1.0" encoding="utf-8"?>

<!DOCTYPE svg PUBLIC "-//W3C//DTD SVG 1.1//EN" "http://www.w3.org/Graphics/SVG/1.1/DTD/svg11.dtd">
<!-- Uploaded to: SVG Repo, www.svgrepo.com, Generator: SVG Repo Mixer Tools -->
<svg height="800px" width="800px" version="1.1" id="_x32_" xmlns="http://www.w3.org/2000/svg" xmlns:xlink="http://www.w3.org/1999/xlink" 
	 viewBox="0 0 512 512"  xml:space="preserve">
<style type="text/css">
	.st0{fill:#000000;}
</style>
<g>
	<path class="st0" d="M499.024,107.708c-2.315-0.873-4.727-1.294-7.11-1.294c-5.649,0-11.162,2.383-15.056,6.787
		c-1.431,1.609-89.779,99.745-179.529,99.745H20.086C8.994,212.945,0,221.938,0,233.031v42.918c0,11.093,8.994,20.086,20.086,20.086
		h58.198c-0.774,4.884-1.167,9.827-1.167,14.77c0.01,52.236,42.526,94.762,94.771,94.782h92.791
		c52.245-0.02,94.752-42.546,94.782-94.772l-0.01-1.481c58.395,26.285,117.368,86.436,118.065,87.152
		c3.855,3.962,9.082,6.08,14.398,6.08c2.55,0,5.11-0.49,7.561-1.48C507.047,398.015,512,390.66,512,382.48v-255.98
		C512,118.143,506.831,110.67,499.024,107.708z M43.438,275.949H20.086v-42.918h23.352V275.949z M87.955,275.949H59.503v-42.918
		h60.631c-4.355,3.236-8.238,6.728-11.632,10.317c-6.973,7.336-12.093,14.986-15.682,21.695
		C90.642,269.152,89.083,272.771,87.955,275.949z M448.927,343.76c-20.949-17.085-47.479-36.132-74.774-49.49
		c-17.634-10.651-31.493-18.321-33.416-18.321H282.99H153.578c-3.511,1.863-6.826,4.08-9.641,6.895
		c-7.189,7.209-11.573,16.987-11.583,27.962c0.01,10.965,4.394,20.743,11.583,27.962c7.209,7.179,16.987,11.573,27.962,11.583
		h92.781c10.965-0.01,20.743-4.404,27.962-11.583c7.179-7.219,11.573-16.997,11.583-27.962c-0.01-6.944-1.922-13.309-5.032-18.948
		h37.603c1.618,6.061,2.579,12.377,2.579,18.948c-0.02,41.251-33.445,74.675-74.696,74.695h-92.781
		c-41.261-0.02-74.685-33.444-74.695-74.695c0-9.141,1.706-17.888,4.727-25.98l0.088,0.019v-0.009
		c0.049-0.255,0.187-0.706,0.294-1.088c1.04-2.678,2.216-5.287,3.55-7.798h-0.52c0.5-1.078,1.03-2.177,1.657-3.325
		c4.472-8.405,11.994-18.782,22.97-26.882c7.925-5.836,17.634-10.494,29.58-12.71H297.33c58.444,0,114.72-36.064,151.597-66.232
		V343.76z M284.138,310.826c-0.01,6.619-3.129,11.151-5.738,13.779c-2.55,2.541-7.081,5.659-13.741,5.659h-92.741
		c-6.659,0-11.191-3.118-13.809-5.727c-2.55-2.57-5.659-7.082-5.669-13.751c0.01-6.629,3.109-11.141,5.718-13.76l1.129-0.99h117.996
		l1.177,1.039C281.019,299.644,284.128,304.156,284.138,310.826z M491.914,382.48c0,0-10.436-10.671-26.922-25.127V153.02
		c16.908-15.222,26.922-26.521,26.922-26.521V382.48z"/>
	<path class="st0" d="M162.072,198.86h15.065c4.855,0,8.788-3.933,8.788-8.788s-3.933-8.788-8.788-8.788h-15.065
		c-4.855,0-8.788,3.933-8.788,8.788S157.217,198.86,162.072,198.86z"/>
	<path class="st0" d="M208.521,198.86h15.065c4.855,0,8.788-3.933,8.788-8.788s-3.933-8.788-8.788-8.788h-15.065
		c-4.855,0-8.788,3.933-8.788,8.788S203.666,198.86,208.521,198.86z"/>
	<path class="st0" d="M254.97,198.86h15.065c4.855,0,8.788-3.933,8.788-8.788s-3.933-8.788-8.788-8.788H254.97
		c-4.855,0-8.788,3.933-8.788,8.788S250.115,198.86,254.97,198.86z"/>
</g>
</svg>